HIERARCHY
ROOT mixamorig:Hips
{
	OFFSET 0.000000 201.639420 0.000000
	CHANNELS 6 Xposition Yposition Zposition Xrotation Yrotation Zrotation
	JOINT mixamorig:Spine
	{
		OFFSET 0.006200 19.524994 -2.481800
		CHANNELS 3 Xrotation Yrotation Zrotation
		JOINT mixamorig:Spine1
		{
			OFFSET -0.000900 22.835007 -2.825400
			CHANNELS 3 Xrotation Yrotation Zrotation
			JOINT mixamorig:Spine2
			{
				OFFSET -0.020600 26.552490 -3.193300
				CHANNELS 3 Xrotation Yrotation Zrotation
				JOINT mixamorig:Neck
				{
					OFFSET -0.060000 30.701813 1.352200
					CHANNELS 3 Xrotation Yrotation Zrotation
					JOINT mixamorig:Head
					{
						OFFSET -0.087200 22.547607 3.670900
						CHANNELS 3 Xrotation Yrotation Zrotation
						JOINT mixamorig:HeadTop_End
						{
							OFFSET -0.830600 40.355194 7.893500
							CHANNELS 3 Xrotation Yrotation Zrotation
							End Site
							{
								OFFSET 0.000000 30.592346 0.000000
							}
						}
						JOINT mixamorig:RightEye
						{
							OFFSET -6.302100 18.118591 16.197100
							CHANNELS 3 Xrotation Yrotation Zrotation
							End Site
							{
								OFFSET 0.000000 30.592346 0.000000
							}
						}
						JOINT mixamorig:LeftEye
						{
							OFFSET 6.741500 18.382690 16.401899
							CHANNELS 3 Xrotation Yrotation Zrotation
							End Site
							{
								OFFSET 0.000000 30.592346 0.000000
							}
						}
					}
				}
				JOINT mixamorig:LeftShoulder
				{
					OFFSET 11.924900 18.230499 1.425400
					CHANNELS 3 Xrotation Yrotation Zrotation
					JOINT mixamorig:LeftArm
					{
						OFFSET 25.435989 -0.697632 -5.229300
						CHANNELS 3 Xrotation Yrotation Zrotation
						JOINT mixamorig:LeftForeArm
						{
							OFFSET 54.684776 0.000000 0.000000
							CHANNELS 3 Xrotation Yrotation Zrotation
							JOINT mixamorig:LeftHand
							{
								OFFSET 55.098175 0.000000 0.000000
								CHANNELS 3 Xrotation Yrotation Zrotation
								JOINT mixamorig:LeftHandMiddle1
								{
									OFFSET 23.369751 0.000000 0.000000
									CHANNELS 3 Xrotation Yrotation Zrotation
									JOINT mixamorig:LeftHandMiddle2
									{
										OFFSET 6.378677 0.000000 0.000000
										CHANNELS 3 Xrotation Yrotation Zrotation
										JOINT mixamorig:LeftHandMiddle3
										{
											OFFSET 6.148331 0.000000 0.000000
											CHANNELS 3 Xrotation Yrotation Zrotation
											JOINT mixamorig:LeftHandMiddle4
											{
												OFFSET 6.582504 0.000000 0.000000
												CHANNELS 3 Xrotation Yrotation Zrotation
												End Site
												{
													OFFSET -1.168900 6.395691 1.028606
												}
											}
										}
									}
								}
								JOINT mixamorig:LeftHandThumb1
								{
									OFFSET 7.235672 -3.848206 5.434273
									CHANNELS 3 Xrotation Yrotation Zrotation
									JOINT mixamorig:LeftHandThumb2
									{
										OFFSET 6.568451 -3.792297 3.792300
										CHANNELS 3 Xrotation Yrotation Zrotation
										JOINT mixamorig:LeftHandThumb3
										{
											OFFSET 6.063080 -3.500519 3.500518
											CHANNELS 3 Xrotation Yrotation Zrotation
											JOINT mixamorig:LeftHandThumb4
											{
												OFFSET 4.793182 -2.767334 2.767349
												CHANNELS 3 Xrotation Yrotation Zrotation
												End Site
												{
													OFFSET 0.101639 6.054260 1.275483
												}
											}
										}
									}
								}
								JOINT mixamorig:LeftHandIndex1
								{
									OFFSET 23.101074 -0.309540 4.992809
									CHANNELS 3 Xrotation Yrotation Zrotation
									JOINT mixamorig:LeftHandIndex2
									{
										OFFSET 6.226883 0.000000 0.000000
										CHANNELS 3 Xrotation Yrotation Zrotation
										JOINT mixamorig:LeftHandIndex3
										{
											OFFSET 6.094330 0.000000 0.000000
											CHANNELS 3 Xrotation Yrotation Zrotation
											JOINT mixamorig:LeftHandIndex4
											{
												OFFSET 5.482605 0.000000 0.000000
												CHANNELS 3 Xrotation Yrotation Zrotation
												End Site
												{
													OFFSET -1.427902 5.233032 0.797164
												}
											}
										}
									}
								}
								JOINT mixamorig:LeftHandRing1
								{
									OFFSET 22.299240 0.021149 -3.964172
									CHANNELS 3 Xrotation Yrotation Zrotation
									JOINT mixamorig:LeftHandRing2
									{
										OFFSET 6.321869 0.000000 0.000000
										CHANNELS 3 Xrotation Yrotation Zrotation
										JOINT mixamorig:LeftHandRing3
										{
											OFFSET 5.899796 0.000000 0.000000
											CHANNELS 3 Xrotation Yrotation Zrotation
											JOINT mixamorig:LeftHandRing4
											{
												OFFSET 6.517899 0.000000 0.000000
												CHANNELS 3 Xrotation Yrotation Zrotation
												End Site
												{
													OFFSET -1.637299 6.232208 0.980890
												}
											}
										}
									}
								}
								JOINT mixamorig:LeftHandPinky1
								{
									OFFSET 20.463791 -0.302338 -8.562233
									CHANNELS 3 Xrotation Yrotation Zrotation
									JOINT mixamorig:LeftHandPinky2
									{
										OFFSET 6.908646 0.000000 0.000000
										CHANNELS 3 Xrotation Yrotation Zrotation
										JOINT mixamorig:LeftHandPinky3
										{
											OFFSET 4.622849 0.000000 0.000000
											CHANNELS 3 Xrotation Yrotation Zrotation
											JOINT mixamorig:LeftHandPinky4
											{
												OFFSET 5.216080 0.000000 0.000000
												CHANNELS 3 Xrotation Yrotation Zrotation
												End Site
												{
													OFFSET -0.606308 5.116241 0.814926
												}
											}
										}
									}
								}
							}
						}
					}
				}
				JOINT mixamorig:RightShoulder
				{
					OFFSET -12.001300 18.284088 1.348900
					CHANNELS 3 Xrotation Yrotation Zrotation
					JOINT mixamorig:RightArm
					{
						OFFSET -25.308500 -0.751312 -5.164599
						CHANNELS 3 Xrotation Yrotation Zrotation
						JOINT mixamorig:RightForeArm
						{
							OFFSET -54.684429 0.000000 0.000000
							CHANNELS 3 Xrotation Yrotation Zrotation
							JOINT mixamorig:RightHand
							{
								OFFSET -55.150291 0.000000 0.000000
								CHANNELS 3 Xrotation Yrotation Zrotation
								JOINT mixamorig:RightHandMiddle1
								{
									OFFSET -23.317566 0.000000 0.000000
									CHANNELS 3 Xrotation Yrotation Zrotation
									JOINT mixamorig:RightHandMiddle2
									{
										OFFSET -6.378403 0.000000 0.000000
										CHANNELS 3 Xrotation Yrotation Zrotation
										JOINT mixamorig:RightHandMiddle3
										{
											OFFSET -6.148193 0.000000 0.000000
											CHANNELS 3 Xrotation Yrotation Zrotation
											JOINT mixamorig:RightHandMiddle4
											{
												OFFSET -6.583389 0.000000 0.000000
												CHANNELS 3 Xrotation Yrotation Zrotation
												End Site
												{
													OFFSET 1.171692 6.395905 1.029786
												}
											}
										}
									}
								}
								JOINT mixamorig:RightHandThumb1
								{
									OFFSET -7.190521 -3.860474 5.435846
									CHANNELS 3 Xrotation Yrotation Zrotation
									JOINT mixamorig:RightHandThumb2
									{
										OFFSET -6.567429 -3.791718 3.791708
										CHANNELS 3 Xrotation Yrotation Zrotation
										JOINT mixamorig:RightHandThumb3
										{
											OFFSET -6.062469 -3.500153 3.500166
											CHANNELS 3 Xrotation Yrotation Zrotation
											JOINT mixamorig:RightHandThumb4
											{
												OFFSET -4.792618 -2.767029 2.767022
												CHANNELS 3 Xrotation Yrotation Zrotation
												End Site
												{
													OFFSET -0.100327 6.053253 1.276754
												}
											}
										}
									}
								}
								JOINT mixamorig:RightHandIndex1
								{
									OFFSET -23.048981 -0.310791 4.992554
									CHANNELS 3 Xrotation Yrotation Zrotation
									JOINT mixamorig:RightHandIndex2
									{
										OFFSET -6.227539 0.000000 0.000000
										CHANNELS 3 Xrotation Yrotation Zrotation
										JOINT mixamorig:RightHandIndex3
										{
											OFFSET -6.095047 0.000000 0.000000
											CHANNELS 3 Xrotation Yrotation Zrotation
											JOINT mixamorig:RightHandIndex4
											{
												OFFSET -5.484772 0.000000 0.000000
												CHANNELS 3 Xrotation Yrotation Zrotation
												End Site
												{
													OFFSET 1.420593 5.237305 0.797056
												}
											}
										}
									}
								}
								JOINT mixamorig:RightHandRing1
								{
									OFFSET -22.246323 0.020569 -3.963762
									CHANNELS 3 Xrotation Yrotation Zrotation
									JOINT mixamorig:RightHandRing2
									{
										OFFSET -6.322128 0.000000 0.000000
										CHANNELS 3 Xrotation Yrotation Zrotation
										JOINT mixamorig:RightHandRing3
										{
											OFFSET -5.900024 0.000000 0.000000
											CHANNELS 3 Xrotation Yrotation Zrotation
											JOINT mixamorig:RightHandRing4
											{
												OFFSET -6.518356 0.000000 0.000000
												CHANNELS 3 Xrotation Yrotation Zrotation
												End Site
												{
													OFFSET 1.636398 6.232697 0.982186
												}
											}
										}
									}
								}
								JOINT mixamorig:RightHandPinky1
								{
									OFFSET -20.411011 -0.303314 -8.561701
									CHANNELS 3 Xrotation Yrotation Zrotation
									JOINT mixamorig:RightHandPinky2
									{
										OFFSET -6.907349 0.000000 0.000000
										CHANNELS 3 Xrotation Yrotation Zrotation
										JOINT mixamorig:RightHandPinky3
										{
											OFFSET -4.623840 0.000000 0.000000
											CHANNELS 3 Xrotation Yrotation Zrotation
											JOINT mixamorig:RightHandPinky4
											{
												OFFSET -5.218353 0.000000 0.000000
												CHANNELS 3 Xrotation Yrotation Zrotation
												End Site
												{
													OFFSET 0.602097 5.118835 0.816273
												}
											}
										}
									}
								}
							}
						}
					}
				}
			}
		}
	}
	JOINT mixamorig:LeftUpLeg
	{
		OFFSET 18.168400 -13.561905 -0.039000
		CHANNELS 3 Xrotation Yrotation Zrotation
		JOINT mixamorig:LeftLeg
		{
			OFFSET 0.577358 -80.825211 -3.695000
			CHANNELS 3 Xrotation Yrotation Zrotation
			JOINT mixamorig:LeftFoot
			{
				OFFSET -0.577356 -83.370262 -6.520700
				CHANNELS 3 Xrotation Yrotation Zrotation
				JOINT mixamorig:LeftToeBase
				{
					OFFSET 0.750401 -20.798306 25.135401
					CHANNELS 3 Xrotation Yrotation Zrotation
					JOINT mixamorig:LeftToe_End
					{
						OFFSET -0.000500 0.001200 19.917799
						CHANNELS 3 Xrotation Yrotation Zrotation
						End Site
						{
							OFFSET 0.000000 19.917805 0.000000
						}
					}
				}
			}
		}
	}
	JOINT mixamorig:RightUpLeg
	{
		OFFSET -18.162500 -13.585098 -0.041000
		CHANNELS 3 Xrotation Yrotation Zrotation
		JOINT mixamorig:RightLeg
		{
			OFFSET -0.595024 -80.945297 -3.631900
			CHANNELS 3 Xrotation Yrotation Zrotation
			JOINT mixamorig:RightFoot
			{
				OFFSET 0.595024 -83.218193 -6.561200
				CHANNELS 3 Xrotation Yrotation Zrotation
				JOINT mixamorig:RightToeBase
				{
					OFFSET -0.753601 -20.807106 25.115000
					CHANNELS 3 Xrotation Yrotation Zrotation
					JOINT mixamorig:RightToe_End
					{
						OFFSET 0.000299 0.001700 19.918200
						CHANNELS 3 Xrotation Yrotation Zrotation
						End Site
						{
							OFFSET 0.000000 19.918203 0.000000
						}
					}
				}
			}
		}
	}
}
MOTION
Frames: 6
Frame Time: 0.033333
-6.081610 193.330994 -0.323020 -3.597582 -3.470211 -1.644112 0.844600 -0.166827 1.983772 -0.317728 -0.034651 0.369513 -0.317668 -0.032917 0.369577 2.111577 0.381216 -0.038847 -5.929875 1.544345 1.066000 0.000001 -0.000000 -0.000000 0.000001 -0.000000 -0.000000 0.000001 -0.000000 -0.000000 -1.320538 9.340507 -3.345746 6.015003 -36.005533 -74.036034 0.000012 -10.441020 0.000008 -13.387786 4.397943 -3.357775 -0.406766 0.037267 -18.891531 0.464452 2.490426 -21.124974 0.050806 0.836626 -6.950059 -0.000006 -0.000001 0.000003 2.353710 11.313223 7.572087 -1.722742 9.197739 4.528021 0.172096 17.842431 0.705438 0.000001 0.000002 -0.000000 -1.026993 -0.124983 -21.465152 0.198457 1.644421 -13.761944 0.025932 0.598303 -4.964161 0.000000 -0.000000 -0.000004 1.035666 3.751715 -22.095807 0.377674 2.253193 -19.028204 0.095205 1.143352 -9.519277 0.000003 0.000000 -0.000004 1.922912 5.371544 -29.528810 0.310733 -2.008624 -17.728224 0.025930 0.598306 -4.964190 -0.000001 -0.000001 -0.000000 -0.607306 -5.786321 2.042472 -3.098057 15.232621 76.598625 -0.000002 7.895250 0.000017 12.601530 4.465366 1.984208 0.270254 -1.998655 19.983959 0.754897 -3.155835 26.899184 0.154320 -1.437767 11.894342 0.000003 -0.000001 -0.000002 -1.493097 -6.404271 -10.935384 -1.570987 -25.252690 4.830241 -4.244458 -7.030068 -3.958534 0.000002 -0.000001 0.000003 -1.889815 2.115412 26.300374 0.376419 -2.260890 18.902793 0.036274 -0.710860 5.843408 0.000001 0.000001 -0.000002 1.335021 -4.806513 20.426470 0.299566 -2.022772 16.846667 0.003290 -1.262072 10.242712 -0.000003 0.000001 -0.000001 -0.880305 0.133863 26.617082 0.502108 -2.598834 21.866637 0.126245 -1.321600 10.912364 -0.000003 0.000002 0.000002 -13.544328 13.466465 13.752515 32.130070 9.490910 1.205436 -13.515069 3.632473 -11.518252 -0.000226 0.000007 -0.000001 -0.000000 0.000000 -0.000000 -12.401452 -12.969838 -9.852826 30.716266 -6.084283 -0.563076 -13.646454 -1.325380 9.367860 -0.003393 0.000000 -0.000002 -0.000000 -0.000000 -0.000000 
-6.079909 193.338181 -0.352489 -3.604648 -3.491421 -1.634948 0.869785 -0.165383 1.988214 -0.306532 -0.034381 0.364942 -0.306472 -0.032675 0.364990 2.186020 0.400707 -0.053752 -6.048421 1.620367 1.088124 -0.000000 -0.000000 0.000000 -0.000000 -0.000000 0.000000 -0.000000 -0.000000 0.000000 -1.318923 9.334388 -3.345990 5.953059 -36.000913 -74.084576 0.000003 -10.503049 0.000007 -13.477700 4.290375 -3.250983 -0.414188 -0.049903 -18.413247 0.466468 2.495607 -21.171141 0.050800 0.836627 -6.950076 -0.000001 0.000000 -0.000001 2.772795 11.497379 7.324043 -1.647331 9.395413 4.527066 -0.289113 17.933466 1.493335 0.000001 0.000000 -0.000002 -1.049365 -0.316976 -20.968809 0.195653 1.632934 -13.663916 0.025936 0.598301 -4.964178 0.000000 -0.000000 -0.000002 1.039691 3.780749 -21.709603 0.380553 2.261510 -19.101358 0.095406 1.144564 -9.529386 -0.000001 -0.000001 0.000001 1.905959 5.350990 -29.394853 0.314367 -1.997291 -17.826743 0.025937 0.598313 -4.964171 0.000001 -0.000001 -0.000000 -0.595198 -5.743930 2.026223 -3.168846 15.298734 76.596863 0.000002 7.967516 0.000004 12.566516 4.425760 2.075648 0.270520 -1.989814 19.799264 0.742224 -3.130780 26.668118 0.152906 -1.431437 11.841007 0.000002 0.000000 0.000002 -1.510360 -6.383694 -10.947272 -1.570980 -25.252686 4.830200 -4.261449 -6.963673 -3.978265 0.000000 -0.000001 -0.000002 -1.881222 2.155842 26.171528 0.371520 -2.246510 18.777959 0.035822 -0.706404 5.806741 0.000002 -0.000001 -0.000003 1.311792 -4.776483 20.236111 0.290518 -1.992635 16.588168 0.001203 -1.251333 10.154522 -0.000001 0.000001 -0.000003 -0.871540 0.125244 26.558299 0.498248 -2.589195 21.781338 0.125605 -1.318290 10.884761 0.000002 0.000001 -0.000001 -13.527821 13.472735 13.738019 32.111315 9.495717 1.199847 -13.498675 3.655821 -11.510140 -0.000219 0.000003 0.000001 -0.000000 0.000000 0.000000 -12.415714 -13.002889 -9.911194 30.717055 -6.016659 -0.503031 -13.636116 -1.317312 9.322418 -0.003393 -0.000002 -0.000002 0.000000 -0.000002 -0.000000 
-6.079984 193.345764 -0.388105 -3.617020 -3.509889 -1.620913 0.899890 -0.165750 1.999708 -0.295545 -0.034455 0.363082 -0.295485 -0.032767 0.363116 2.262315 0.411260 -0.072439 -6.156658 1.669300 1.040492 0.000000 -0.000000 -0.000000 0.000000 -0.000000 -0.000000 0.000000 -0.000000 -0.000000 -1.318576 9.326634 -3.330742 5.897064 -36.005011 -74.160657 0.000007 -10.555379 0.000024 -13.529332 4.060321 -3.019037 -0.423446 -0.145718 -17.921368 0.467900 2.499299 -21.203984 0.050806 0.836622 -6.950079 -0.000000 0.000001 0.000004 3.164781 11.684868 7.100647 -1.575323 9.586435 4.526067 -0.708877 18.016057 2.241328 0.000002 -0.000001 -0.000003 -1.074462 -0.540731 -20.401177 0.196436 1.636154 -13.691385 0.025928 0.598305 -4.964173 -0.000000 -0.000001 -0.000001 1.054854 3.834507 -21.346435 0.383334 2.269514 -19.171581 0.095418 1.144644 -9.530095 -0.000002 0.000001 -0.000003 1.910071 5.360827 -29.276527 0.317362 -1.988005 -17.907446 0.025937 0.598305 -4.964188 0.000000 -0.000001 -0.000001 -0.584967 -5.696821 1.970195 -3.228003 15.391649 76.613330 0.000004 8.019849 -0.000017 12.560320 4.553893 2.020720 0.253470 -1.932011 19.560041 0.729792 -3.105940 26.439587 0.151877 -1.424200 11.781115 -0.000001 0.000001 -0.000001 -1.506287 -6.358587 -10.943093 -1.570988 -25.252693 4.830244 -4.272825 -6.900658 -3.984957 -0.000002 0.000001 0.000001 -1.874034 2.183891 26.078318 0.365868 -2.229863 18.633468 0.035235 -0.700547 5.758389 -0.000002 -0.000000 -0.000004 1.281477 -4.724066 20.062485 0.282201 -1.964519 16.347300 0.000617 -1.243139 10.088750 0.000000 -0.000002 -0.000002 -0.859678 0.106563 26.520795 0.492796 -2.575521 21.660377 0.124609 -1.313133 10.841501 -0.000003 -0.000001 -0.000000 -13.506819 13.471461 13.710453 32.088270 9.504137 1.205076 -13.476872 3.674863 -11.506486 -0.000222 0.000002 0.000001 -0.000000 0.000002 0.000000 -12.427295 -13.025251 -9.959862 30.720483 -5.946658 -0.461950 -13.629000 -1.310539 9.283074 -0.003393 0.000000 -0.000002 0.000000 0.000000 -0.000000 
-6.082959 193.344833 -0.434717 -3.632172 -3.531312 -1.611019 0.943372 -0.169893 2.016594 -0.283821 -0.035201 0.364061 -0.283758 -0.033519 0.364085 2.329898 0.415553 -0.093535 -6.214919 1.702353 0.936277 0.000000 -0.000000 -0.000000 0.000000 -0.000000 -0.000000 0.000000 -0.000000 -0.000000 -1.318571 9.318004 -3.310226 5.850001 -36.015325 -74.242497 -0.000003 -10.593860 0.000018 -13.564693 3.708074 -2.719590 -0.430702 -0.222896 -17.536936 0.469725 2.504010 -21.245862 0.050802 0.836615 -6.950096 -0.000002 -0.000001 0.000000 3.472838 11.802709 6.917195 -1.529967 9.758520 4.547353 -1.055967 18.090533 2.886411 -0.000002 0.000001 -0.000001 -1.094372 -0.751535 -19.872734 0.198841 1.645985 -13.775275 0.025934 0.598307 -4.964176 -0.000001 -0.000001 0.000001 1.075975 3.898357 -21.084755 0.386085 2.277420 -19.240947 0.095331 1.144110 -9.525657 0.000000 0.000001 0.000003 1.927991 5.390057 -29.203515 0.319660 -1.980909 -17.969271 0.025937 0.598315 -4.964181 -0.000001 0.000000 0.000005 -0.575816 -5.645113 1.884793 -3.282594 15.513726 76.631219 0.000005 8.085598 -0.000023 12.593931 4.732034 1.920188 0.229922 -1.854467 19.316214 0.720333 -3.086865 26.264403 0.151310 -1.418019 11.730494 0.000001 0.000000 0.000004 -1.497146 -6.347293 -10.940589 -1.570990 -25.252690 4.830239 -4.276378 -6.858094 -3.982053 0.000001 -0.000001 -0.000002 -1.867995 2.204210 26.002701 0.361280 -2.216209 18.515156 0.034745 -0.695620 5.717759 0.000003 -0.000003 -0.000003 1.255024 -4.675812 19.921300 0.276159 -1.943819 16.170172 0.000673 -1.237812 10.046716 0.000002 -0.000000 0.000000 -0.846853 0.084671 26.489939 0.487278 -2.561617 21.537328 0.123651 -1.308059 10.799194 0.000000 -0.000001 -0.000001 -13.509352 13.473072 13.695386 32.093963 9.511396 1.207420 -13.456324 3.709724 -11.500613 -0.000222 -0.000002 -0.000001 0.000000 0.000000 0.000000 -12.449504 -12.999597 -9.947571 30.744993 -5.962657 -0.495558 -13.620771 -1.312086 9.292398 -0.003393 0.000000 -0.000002 0.000000 0.000000 -0.000000 
-6.086007 193.351074 -0.498652 -3.649877 -3.546913 -1.601719 1.008406 -0.176642 2.036509 -0.272575 -0.036488 0.365276 -0.272508 -0.034790 0.365298 2.381322 0.417857 -0.120201 -6.212231 1.731780 0.794336 0.000000 0.000000 -0.000000 0.000000 0.000000 -0.000000 0.000000 0.000000 -0.000000 -1.316537 9.309767 -3.309248 5.818603 -36.053471 -74.285964 -0.000006 -10.617426 -0.000008 -13.635651 3.364293 -2.439133 -0.431052 -0.243490 -17.411112 0.473028 2.512490 -21.321479 0.050804 0.836632 -6.950064 -0.000002 -0.000002 -0.000003 3.623487 11.779976 6.806476 -1.544090 9.896070 4.626688 -1.288800 18.146674 3.350476 0.000000 0.000000 0.000002 -1.104188 -0.872121 -19.601017 0.200713 1.653587 -13.840265 0.025930 0.598311 -4.964143 0.000001 0.000000 0.000001 1.092946 3.943974 -21.003262 0.388517 2.284385 -19.302270 0.095207 1.143380 -9.519498 -0.000000 -0.000000 0.000004 1.950933 5.425406 -29.199158 0.321156 -1.976303 -18.009283 0.025936 0.598309 -4.964176 -0.000002 -0.000000 -0.000001 -0.566807 -5.599290 1.820349 -3.322403 15.664576 76.596958 -0.000000 8.187859 -0.000016 12.586159 4.864801 1.868678 0.215809 -1.805723 19.152759 0.716299 -3.078687 26.189421 0.151104 -1.414900 11.705115 -0.000002 -0.000000 0.000003 -1.494360 -6.366337 -10.950444 -1.570996 -25.252680 4.830227 -4.271057 -6.850476 -3.971519 0.000001 -0.000001 -0.000000 -1.860605 2.211309 25.944658 0.359812 -2.211835 18.477193 0.034535 -0.693632 5.701370 0.000002 0.000002 -0.000002 1.242029 -4.655555 19.831743 0.273477 -1.934541 16.090932 0.000497 -1.235053 10.024599 0.000003 0.000000 0.000001 -0.836875 0.069125 26.454439 0.483823 -2.552854 21.459881 0.123089 -1.305149 10.774900 -0.000003 0.000001 0.000002 -13.508744 13.484677 13.686428 32.090500 9.515726 1.195900 -13.423560 3.769189 -11.482190 -0.000219 0.000000 -0.000002 -0.000000 -0.000000 0.000000 -12.458782 -12.979513 -9.940030 30.749532 -5.978825 -0.520869 -13.601811 -1.312239 9.299227 -0.003393 0.000000 -0.000002 0.000000 0.000000 0.000000 
-6.093761 193.354767 -0.578019 -3.676083 -3.543520 -1.589453 1.099042 -0.183923 2.056195 -0.262110 -0.037993 0.365439 -0.262039 -0.036258 0.365466 2.414525 0.419610 -0.151838 -6.197120 1.754715 0.647358 -0.000000 -0.000000 0.000000 -0.000000 -0.000000 0.000000 -0.000000 -0.000000 0.000000 -1.309645 9.296224 -3.341146 5.799149 -36.130290 -74.269585 0.000004 -10.623960 0.000032 -13.701129 3.156802 -2.216099 -0.422737 -0.198876 -17.562322 0.477838 2.524776 -21.431040 0.050810 0.836623 -6.950060 -0.000003 0.000001 -0.000001 3.601030 11.607353 6.787617 -1.623920 9.994144 4.774900 -1.407149 18.164866 3.620997 -0.000001 0.000001 0.000000 -1.105336 -0.869850 -19.688005 0.201082 1.655081 -13.853032 0.025941 0.598309 -4.964164 0.000000 -0.000001 -0.000002 1.101159 3.959562 -21.091986 0.390232 2.289263 -19.345251 0.094929 1.141737 -9.505643 -0.000001 0.000001 0.000002 1.973786 5.461008 -29.240163 0.321985 -1.973754 -18.031431 0.025936 0.598309 -4.964178 -0.000001 -0.000003 -0.000001 -0.555709 -5.559848 1.807883 -3.356927 15.805987 76.493461 -0.000001 8.293269 0.000003 12.509381 4.950836 1.838179 0.216568 -1.804644 19.098782 0.717196 -3.080530 26.206232 0.150977 -1.414535 11.701922 0.000000 0.000001 0.000006 -1.498040 -6.402585 -10.965017 -1.570985 -25.252692 4.830180 -4.257791 -6.877478 -3.953888 -0.000002 0.000002 0.000000 -1.850763 2.195881 25.931303 0.361170 -2.215908 18.512511 0.034596 -0.694153 5.705618 0.000001 0.000000 -0.000006 1.241137 -4.659623 19.798681 0.273200 -1.933612 16.082819 0.000083 -1.233901 10.014888 -0.000006 0.000000 -0.000002 -0.833855 0.066442 26.428744 0.482989 -2.550744 21.441332 0.122962 -1.304462 10.769121 -0.000001 0.000000 -0.000000 -13.507721 13.485049 13.675382 32.087880 9.520720 1.194083 -13.398214 3.746893 -11.471818 -0.000223 0.000003 0.000000 -0.000000 -0.000000 -0.000000 -12.465675 -12.963632 -9.938389 30.765347 -5.978666 -0.538227 -13.591245 -1.311067 9.295690 -0.003393 0.000002 -0.000002 -0.000000 0.000002 0.000000 
